<svg width="20" height="20" viewBox="0 0 20 20" fill="none" xmlns="http://www.w3.org/2000/svg">
<g clip-path="url(#clip0_425_4536)">
<path d="M10.014 -0.00549316C5.8391 -0.00549316 4.6181 -0.00118628 4.38076 0.0185023C3.524 0.0897197 2.99087 0.224617 2.41005 0.513794C1.96244 0.73606 1.60943 0.993704 1.26104 1.35487C0.626541 2.01351 0.241998 2.82382 0.102793 3.78702C0.0351137 4.25463 0.0154251 4.35 0.0114258 6.73847C0.00988765 7.53463 0.0114258 8.58243 0.0114258 9.98786C0.0114258 14.1594 0.0160403 15.3792 0.0360366 15.616C0.105254 16.4497 0.235999 16.9742 0.51287 17.548C1.042 18.6462 2.05258 19.4707 3.24313 19.7783C3.65536 19.8845 4.11066 19.9429 4.69516 19.9706C4.94281 19.9814 7.46695 19.9891 9.99263 19.9891C12.5183 19.9891 15.044 19.986 15.2855 19.9737C15.9623 19.9418 16.3553 19.8891 16.7898 19.7768C17.988 19.4676 18.9802 18.6555 19.5201 17.5418C19.7916 16.9819 19.9292 16.4374 19.9915 15.6473C20.0051 15.475 20.0107 12.7283 20.0107 9.98524C20.0107 7.24176 20.0046 4.50012 19.9911 4.32785C19.928 3.52492 19.7903 2.98502 19.5101 2.41436C19.2801 1.94722 19.0248 1.59836 18.6541 1.24166C17.9925 0.609776 17.1834 0.225233 16.2193 0.0861819C15.7522 0.0186561 15.6591 -0.0013401 13.2688 -0.00549316H10.014Z" fill="url(#paint0_radial_425_4536)"/>
<path d="M10.014 -0.00549316C5.8391 -0.00549316 4.6181 -0.00118628 4.38076 0.0185023C3.524 0.0897197 2.99087 0.224617 2.41005 0.513794C1.96244 0.73606 1.60943 0.993704 1.26104 1.35487C0.626541 2.01351 0.241998 2.82382 0.102793 3.78702C0.0351137 4.25463 0.0154251 4.35 0.0114258 6.73847C0.00988765 7.53463 0.0114258 8.58243 0.0114258 9.98786C0.0114258 14.1594 0.0160403 15.3792 0.0360366 15.616C0.105254 16.4497 0.235999 16.9742 0.51287 17.548C1.042 18.6462 2.05258 19.4707 3.24313 19.7783C3.65536 19.8845 4.11066 19.9429 4.69516 19.9706C4.94281 19.9814 7.46695 19.9891 9.99263 19.9891C12.5183 19.9891 15.044 19.986 15.2855 19.9737C15.9623 19.9418 16.3553 19.8891 16.7898 19.7768C17.988 19.4676 18.9802 18.6555 19.5201 17.5418C19.7916 16.9819 19.9292 16.4374 19.9915 15.6473C20.0051 15.475 20.0107 12.7283 20.0107 9.98524C20.0107 7.24176 20.0046 4.50012 19.9911 4.32785C19.928 3.52492 19.7903 2.98502 19.5101 2.41436C19.2801 1.94722 19.0248 1.59836 18.6541 1.24166C17.9925 0.609776 17.1834 0.225233 16.2193 0.0861819C15.7522 0.0186561 15.6591 -0.0013401 13.2688 -0.00549316H10.014Z" fill="url(#paint1_radial_425_4536)"/>
<path d="M10.0093 2.60938C8.00417 2.60938 7.75252 2.61814 6.96498 2.65398C6.17897 2.68998 5.64246 2.81441 5.17301 2.99699C4.68741 3.18557 4.27549 3.43783 3.8651 3.84837C3.45441 4.25876 3.20215 4.67068 3.01295 5.15613C2.82991 5.62573 2.70532 6.1624 2.66994 6.9481C2.63472 7.73564 2.62549 7.98744 2.62549 9.9926C2.62549 11.9978 2.63441 12.2486 2.6701 13.0362C2.70624 13.8222 2.83068 14.3587 3.01311 14.8282C3.20184 15.3138 3.4541 15.7257 3.86464 16.1361C4.27487 16.5468 4.68679 16.7996 5.17209 16.9882C5.64184 17.1708 6.17851 17.2952 6.96436 17.3312C7.75191 17.3671 8.0034 17.3758 10.0084 17.3758C12.0137 17.3758 12.2646 17.3671 13.0521 17.3312C13.8381 17.2952 14.3753 17.1708 14.845 16.9882C15.3305 16.7996 15.7418 16.5468 16.152 16.1361C16.5627 15.7257 16.815 15.3138 17.0042 14.8283C17.1857 14.3587 17.3103 13.822 17.3472 13.0363C17.3826 12.2488 17.3918 11.9978 17.3918 9.9926C17.3918 7.98744 17.3826 7.7358 17.3472 6.94825C17.3103 6.16225 17.1857 5.62573 17.0042 5.15628C16.815 4.67068 16.5627 4.25876 16.152 3.84837C15.7413 3.43768 15.3306 3.18542 14.8446 2.99699C14.3739 2.81441 13.8371 2.68998 13.0511 2.65398C12.2635 2.61814 12.0128 2.60938 10.007 2.60938H10.0093ZM9.34699 3.93989C9.54357 3.93959 9.76291 3.93989 10.0093 3.93989C11.9807 3.93989 12.2143 3.94697 12.9928 3.98235C13.7126 4.01526 14.1033 4.13555 14.3636 4.23661C14.7081 4.37043 14.9538 4.5304 15.212 4.78881C15.4705 5.04722 15.6304 5.29333 15.7646 5.63788C15.8656 5.89783 15.9861 6.28853 16.0188 7.00839C16.0542 7.78671 16.0619 8.02051 16.0619 9.99091C16.0619 11.9613 16.0542 12.1951 16.0188 12.9734C15.9859 13.6933 15.8656 14.084 15.7646 14.3439C15.6307 14.6885 15.4705 14.9338 15.212 15.1921C14.9536 15.4505 14.7083 15.6105 14.3636 15.7443C14.1036 15.8458 13.7126 15.9658 12.9928 15.9987C12.2145 16.0341 11.9807 16.0418 10.0093 16.0418C8.03785 16.0418 7.80421 16.0341 7.02589 15.9987C6.30603 15.9655 5.91533 15.8452 5.65492 15.7441C5.31037 15.6103 5.06426 15.4503 4.80585 15.1919C4.54743 14.9335 4.38746 14.688 4.25334 14.3433C4.15228 14.0834 4.03184 13.6927 3.99908 12.9728C3.9637 12.1945 3.95662 11.9607 3.95662 9.98906C3.95662 8.01744 3.9637 7.78486 3.99908 7.00655C4.03199 6.28668 4.15228 5.89599 4.25334 5.63573C4.38716 5.29118 4.54743 5.04507 4.80585 4.78666C5.06426 4.52824 5.31037 4.36828 5.65492 4.23415C5.91518 4.13263 6.30603 4.01265 7.02589 3.97958C7.70699 3.94882 7.97094 3.93959 9.34699 3.93805V3.93989ZM13.9504 5.16582C13.4613 5.16582 13.0644 5.5622 13.0644 6.0515C13.0644 6.54064 13.4613 6.93748 13.9504 6.93748C14.4396 6.93748 14.8364 6.54064 14.8364 6.0515C14.8364 5.56236 14.4396 5.16551 13.9504 5.16551V5.16582ZM10.0093 6.20101C7.91542 6.20101 6.21774 7.89869 6.21774 9.9926C6.21774 12.0865 7.91542 13.7834 10.0093 13.7834C12.1032 13.7834 13.8003 12.0865 13.8003 9.9926C13.8003 7.89869 12.1032 6.20101 10.0093 6.20101ZM10.0093 7.53153C11.3685 7.53153 12.4704 8.63332 12.4704 9.9926C12.4704 11.3517 11.3685 12.4537 10.0093 12.4537C8.65005 12.4537 7.54825 11.3517 7.54825 9.9926C7.54825 8.63332 8.65005 7.53153 10.0093 7.53153Z" fill="white"/>
</g>
<defs>
<radialGradient id="paint0_radial_425_4536" cx="0" cy="0" r="1" gradientUnits="userSpaceOnUse" gradientTransform="translate(5.32327 21.5291) rotate(-90) scale(19.8161 18.4355)">
<stop stop-color="#FFDD55"/>
<stop offset="0.1" stop-color="#FFDD55"/>
<stop offset="0.5" stop-color="#FF543E"/>
<stop offset="1" stop-color="#C837AB"/>
</radialGradient>
<radialGradient id="paint1_radial_425_4536" cx="0" cy="0" r="1" gradientUnits="userSpaceOnUse" gradientTransform="translate(-3.33936 1.43488) rotate(78.6776) scale(8.85796 36.5221)">
<stop stop-color="#3771C8"/>
<stop offset="0.128" stop-color="#3771C8"/>
<stop offset="1" stop-color="#6600FF" stop-opacity="0"/>
</radialGradient>
<clipPath id="clip0_425_4536">
<rect width="20" height="20" fill="white"/>
</clipPath>
</defs>
</svg>
