<svg width="20" height="20" viewBox="0 0 20 20" fill="none" xmlns="http://www.w3.org/2000/svg">
<g clip-path="url(#clip0_425_4528)">
<path d="M19.5818 5.18637C19.3513 4.32532 18.6746 3.64867 17.8136 3.41818C16.2545 3 9.99996 3 9.99996 3C9.99996 3 3.74547 3 2.18636 3.41818C1.32532 3.64867 0.648666 4.32532 0.418176 5.18637C1.25176e-07 6.74547 0 10.0003 0 10.0003C0 10.0003 1.25176e-07 13.2552 0.418176 14.8143C0.648666 15.6753 1.32532 16.352 2.18636 16.5825C3.74547 17.0007 9.99996 17.0007 9.99996 17.0007C9.99996 17.0007 16.2545 17.0007 17.8136 16.5825C18.6746 16.352 19.3513 15.6753 19.5818 14.8143C20 13.2552 20 10.0003 20 10.0003C20 10.0003 19.9983 6.74547 19.5818 5.18637Z" fill="#FF0000"/>
<path d="M7.99854 13.0003L13.1945 10.0007L7.99854 7.00098V13.0003Z" fill="white"/>
</g>
<defs>
<clipPath id="clip0_425_4528">
<rect width="20" height="20" fill="white"/>
</clipPath>
</defs>
</svg>
