<svg width="20" height="20" viewBox="0 0 20 20" fill="none" xmlns="http://www.w3.org/2000/svg">
<g id="Frame 1416">
<g id="Group">
<path id="Vector" d="M16.9419 3.29661C15.6473 2.69088 14.263 2.25066 12.8157 2C12.638 2.32134 12.4304 2.75355 12.2872 3.09738C10.7487 2.86601 9.22445 2.86601 7.7143 3.09738C7.57116 2.75355 7.3588 2.32134 7.17947 2C5.73067 2.25066 4.3448 2.6925 3.05016 3.29982C0.438869 7.24582 -0.269009 11.0938 0.0849305 14.8872C1.81688 16.1805 3.49534 16.9662 5.14548 17.4804C5.55291 16.9196 5.91628 16.3235 6.22931 15.6953C5.63313 15.4688 5.06211 15.1892 4.52256 14.8647C4.6657 14.7586 4.80571 14.6478 4.94098 14.5337C8.23183 16.0729 11.8074 16.0729 15.0589 14.5337C15.1958 14.6478 15.3358 14.7586 15.4774 14.8647C14.9362 15.1908 14.3637 15.4704 13.7675 15.697C14.0805 16.3235 14.4423 16.9212 14.8513 17.4819C16.503 16.9678 18.183 16.1822 19.915 14.8872C20.3303 10.4897 19.2056 6.67705 16.9419 3.29661ZM6.67765 12.5543C5.68977 12.5543 4.87963 11.632 4.87963 10.509C4.87963 9.38591 5.67247 8.46208 6.67765 8.46208C7.68285 8.46208 8.49297 9.38429 8.47567 10.509C8.47723 11.632 7.68285 12.5543 6.67765 12.5543ZM13.3223 12.5543C12.3344 12.5543 11.5243 11.632 11.5243 10.509C11.5243 9.38591 12.3171 8.46208 13.3223 8.46208C14.3275 8.46208 15.1376 9.38429 15.1203 10.509C15.1203 11.632 14.3275 12.5543 13.3223 12.5543Z" fill="#5865F2"/>
</g>
</g>
</svg>
