<?xml version="1.0" encoding="UTF-8" standalone="no"?>
<svg width="20px" height="10px" viewBox="0 0 20 10" version="1.1" xmlns="http://www.w3.org/2000/svg" xmlns:xlink="http://www.w3.org/1999/xlink">
    <defs></defs>
    <g id="Page-1" stroke="none" stroke-width="1" fill="none" fill-rule="evenodd">
        <g id="link" fill="#FF5231">
            <path d="M15,0 L12.3046875,0 C13.2421875,0.625 14.1210938,1.73828125 14.3945312,2.5 L14.9804688,2.5 C16.25,2.5 17.4804688,3.75 17.4804688,5 C17.4804688,6.25 16.2109375,7.5 14.9804688,7.5 L11.2304688,7.5 C10,7.5 8.73046875,6.25 8.73046875,5 C8.73046875,4.55078125 8.8671875,4.12109375 9.08203125,3.75 L6.40625,3.75 C6.30859375,4.16015625 6.25,4.5703125 6.25,5 C6.25,7.5 8.73046875,10 11.2304688,10 L15,10 C17.5,10 20,7.5 20,5 C20,2.5 17.5,0 15,0 L15,0 Z M5.60546875,7.5 L5.01953125,7.5 C3.75,7.5 2.51953125,6.25 2.51953125,5 C2.51953125,3.75 3.7890625,2.5 5.01953125,2.5 L8.76953125,2.5 C10,2.5 11.2695312,3.75 11.2695312,5 C11.2695312,5.44921875 11.1328125,5.87890625 10.9179688,6.25 L13.59375,6.25 C13.6914062,5.83984375 13.75,5.4296875 13.75,5 C13.75,2.5 11.2695312,0 8.76953125,0 L5,0 C2.5,0 0,2.5 0,5 C0,7.5 2.5,10 5,10 L7.6953125,10 C6.7578125,9.375 5.87890625,8.26171875 5.60546875,7.5 L5.60546875,7.5 Z" id="Shape"></path>
        </g>
    </g>
</svg>