<?xml version="1.0" standalone="no"?>
<!DOCTYPE svg PUBLIC "-//W3C//DTD SVG 20010904//EN"
 "http://www.w3.org/TR/2001/REC-SVG-20010904/DTD/svg10.dtd">
<svg version="1.0" xmlns="http://www.w3.org/2000/svg"
 width="146.000000pt" height="146.000000pt" viewBox="0 0 146.000000 146.000000"
 preserveAspectRatio="xMidYMid meet">
<metadata>
Created by potrace 1.11, written by Peter Selinger 2001-2013
</metadata>
<g transform="translate(0.000000,146.000000) scale(0.100000,-0.100000)"
fill="#000000" stroke="none">
<path d="M585 1435 c-33 -7 -86 -23 -117 -35 l-58 -21 0 -79 0 -79 33 19 c78
46 184 72 297 72 261 1 510 -203 564 -462 9 -43 14 -145 15 -299 1 -129 3
-237 5 -238 2 -2 18 21 35 52 234 415 16 936 -444 1060 -79 22 -253 27 -330
10z"/>
<path d="M284 1297 c-77 -61 -72 -34 -71 -341 0 -306 7 -358 57 -455 29 -54
53 -91 61 -91 2 0 4 87 4 193 1 157 4 202 19 247 37 113 127 207 237 248 151
56 320 15 426 -103 74 -81 97 -141 97 -260 1 -92 -1 -105 -31 -167 -61 -129
-183 -214 -320 -225 -37 -2 -87 0 -110 5 -39 9 -42 8 -45 -12 -2 -11 -1 -40 0
-63 4 -41 5 -42 49 -49 186 -28 393 64 497 220 195 293 52 683 -286 781 -115
33 -258 21 -363 -32 -56 -28 -155 -101 -155 -114 0 -5 -4 -9 -8 -9 -4 0 -8 57
-8 126 1 69 -1 127 -4 129 -4 2 -24 -11 -46 -28z"/>
<path d="M118 1117 c-34 -51 -76 -147 -94 -212 -28 -103 -26 -275 5 -375 82
-267 270 -445 542 -513 36 -9 99 -13 175 -12 97 2 134 7 199 28 87 29 210 97
264 148 l35 32 1 110 0 109 -20 -28 c-137 -193 -359 -294 -575 -262 -263 39
-465 237 -506 498 -4 25 -7 147 -6 273 0 125 -1 227 -3 227 -1 0 -9 -10 -17
-23z"/>
<path d="M687 1048 c-112 -15 -216 -97 -256 -202 -17 -45 -19 -79 -20 -286
l-2 -235 54 -33 c29 -17 56 -32 59 -32 4 0 8 121 10 269 l3 269 30 44 c81 116
248 116 325 0 16 -25 31 -55 31 -66 7 -95 -18 -154 -84 -201 -36 -26 -51 -30
-107 -30 -45 0 -74 5 -92 17 l-26 17 -4 -60 c-1 -34 -1 -64 2 -69 14 -20 54
-29 126 -27 61 2 90 8 129 27 198 99 240 355 85 510 -70 70 -164 101 -263 88z"/>
<path d="M674 840 c-76 -30 -85 -161 -16 -206 77 -51 177 -6 189 85 12 91 -82
158 -173 121z"/>
</g>
</svg>
