<svg width="142" height="31" viewBox="0 0 142 31" fill="none" xmlns="http://www.w3.org/2000/svg">
<path d="M43.9096 7.22516C42.6023 7.21365 41.3121 7.52296 40.1522 8.12599C38.9922 8.72901 37.9978 9.60735 37.2562 10.684C36.5146 11.7607 36.0484 13.0028 35.8985 14.3016C35.7485 15.6003 35.9194 16.916 36.3961 18.1333C36.8729 19.3506 37.6409 20.4325 38.6329 21.284C39.625 22.1355 40.8107 22.7307 42.0863 23.0174C43.3618 23.3041 44.6882 23.2735 45.9492 22.9284C47.2101 22.5834 48.3672 21.9342 49.319 21.038V22.4858H51.8252V15.5979C51.8316 15.4498 51.8355 15.3004 51.8342 15.1498C51.8093 13.0557 50.9664 11.0545 49.4856 9.57371C48.0049 8.09291 46.0036 7.25002 43.9096 7.22516ZM43.9441 20.7252C42.8461 20.7459 41.7669 20.4378 40.8453 19.8406C39.9237 19.2434 39.2016 18.3843 38.7718 17.3736C38.3421 16.363 38.2243 15.2469 38.4336 14.1689C38.6429 13.0908 39.1696 12.0998 39.9463 11.3234C40.7229 10.5469 41.714 10.0203 42.7921 9.81131C43.8703 9.60229 44.9863 9.72036 45.9968 10.1503C47.0074 10.5803 47.8663 11.3026 48.4633 12.2244C49.0603 13.1462 49.3681 14.2254 49.3471 15.3234C49.3471 15.3783 49.3471 15.4319 49.3395 15.4855H49.3203V15.7549C49.1843 17.0967 48.5626 18.3424 47.5722 19.2578C46.5818 20.1732 45.2911 20.695 43.9428 20.7252H43.9441Z" fill="#292D33"/>
<path d="M61.3695 7.22511C59.2994 7.20411 57.3025 7.98989 55.8018 9.41596V2.44507H53.2969V15.4855H53.3109C53.3633 17.0512 53.8746 18.5671 54.7813 19.8447C55.688 21.1223 56.9501 22.1053 58.4108 22.6715C59.8715 23.2377 61.4665 23.3623 62.9973 23.0296C64.5282 22.6969 65.9276 21.9217 67.0216 20.8003C68.1156 19.679 68.856 18.2608 69.1507 16.7222C69.4455 15.1835 69.2815 13.5921 68.6794 12.1459C68.0772 10.6996 67.0633 9.46212 65.7637 8.58727C64.4641 7.71242 62.9361 7.23874 61.3695 7.22511ZM61.4002 20.7251C59.9688 20.7524 58.583 20.2212 57.5367 19.244C56.4904 18.2668 55.8658 16.9205 55.7954 15.4906V14.9301C55.8518 13.8594 56.2196 12.8284 56.8536 11.9636C57.4876 11.0989 58.3603 10.4382 59.3645 10.0624C60.3687 9.68662 61.4608 9.61223 62.5068 9.84833C63.5527 10.0844 64.5069 10.6208 65.2523 11.3915C65.9978 12.1622 66.5019 13.1338 66.703 14.187C66.9041 15.2403 66.7933 16.3293 66.3842 17.3204C65.9752 18.3116 65.2856 19.1617 64.4003 19.7665C63.5149 20.3714 62.4722 20.7045 61.4002 20.7251Z" fill="#292D33"/>
<path d="M78.8304 7.22513C77.769 7.21577 76.7164 7.41791 75.734 7.81977C74.7516 8.22163 73.859 8.81516 73.1085 9.5657C72.358 10.3162 71.7644 11.2088 71.3626 12.1912C70.9607 13.1736 70.7586 14.2262 70.7679 15.2876C70.7679 15.354 70.7679 15.4153 70.7679 15.4855H70.7539V28.5272H73.2588V21.0073C74.2037 21.9028 75.3531 22.5538 76.607 22.9038C77.8608 23.2537 79.1812 23.292 80.4533 23.0152C81.7253 22.7384 82.9105 22.155 83.9056 21.3158C84.9008 20.4765 85.6757 19.4068 86.1632 18.1997C86.6506 16.9926 86.8357 15.6846 86.7023 14.3897C86.569 13.0947 86.1212 11.852 85.398 10.7695C84.6748 9.68709 83.6981 8.79777 82.5528 8.17892C81.4075 7.56008 80.1283 7.23046 78.8266 7.21875L78.8304 7.22513ZM78.8661 20.7252C77.4379 20.7523 76.055 20.2233 75.0095 19.25C73.9639 18.2766 73.3376 16.935 73.2626 15.5085V15.4855C73.2626 15.3578 73.2537 15.2391 73.2626 15.114C73.2844 14.034 73.6232 12.9843 74.2369 12.0954C74.8506 11.2066 75.7121 10.5178 76.7143 10.1147C77.7164 9.71171 78.815 9.61227 79.8732 9.82878C80.9315 10.0453 81.9027 10.5682 82.666 11.3324C83.4294 12.0966 83.9512 13.0685 84.1665 14.1269C84.3818 15.1854 84.2811 16.2839 83.8769 17.2856C83.4728 18.2873 82.783 19.148 81.8934 19.7607C81.0039 20.3734 79.9538 20.7111 78.8738 20.7316L78.8661 20.7252Z" fill="#292D33"/>
<path d="M14.8878 17.9316C16.2513 17.9316 17.3566 16.8263 17.3566 15.4628C17.3566 14.0992 16.2513 12.9939 14.8878 12.9939C13.5243 12.9939 12.4189 14.0992 12.4189 15.4628C12.4189 16.8263 13.5243 17.9316 14.8878 17.9316Z" fill="#B84297"/>
<path d="M14.8864 0.724128C12.6317 0.722011 10.4061 1.23386 8.37891 2.22079V5.41698C10.1851 4.26396 12.2651 3.61132 14.4063 3.5258C16.5475 3.44027 18.673 3.92493 20.5654 4.93021C22.4578 5.9355 24.0493 7.42533 25.177 9.24736C26.3048 11.0694 26.9284 13.1582 26.984 15.3003V24.2905C28.5803 22.0657 29.5321 19.4439 29.7347 16.7132C29.9373 13.9826 29.3829 11.2489 28.1324 8.81299C26.882 6.37703 24.9839 4.33311 22.6469 2.90601C20.31 1.47892 17.6247 0.72395 14.8864 0.724128Z" fill="#292D33"/>
<path d="M14.8836 27.7225C11.7736 27.7224 8.78301 26.5249 6.53233 24.3785C4.28164 22.2321 2.94366 19.3015 2.796 16.1948H2.78196V6.93359C0.605622 9.97529 -0.347009 13.7244 0.113303 17.4361C0.573615 21.1478 2.41319 24.5506 5.26659 26.9685C8.12 29.3863 11.7785 30.6424 15.5152 30.4871C19.252 30.3318 22.7936 28.7765 25.4366 26.1302V21.5462C24.3844 23.4201 22.8523 24.9799 20.9976 26.0654C19.1429 27.1509 17.0326 27.7229 14.8836 27.7225Z" fill="#292D33"/>
<path d="M14.8928 19.4525C13.9934 19.4534 13.1197 19.1512 12.4118 18.5945V21.4504C13.7024 21.983 15.1294 22.0854 16.4823 21.7423C17.8353 21.3992 19.0425 20.6289 19.926 19.5449C20.8095 18.4609 21.3223 17.1207 21.389 15.722C21.4557 14.3233 21.0726 12.9401 20.2962 11.7765C19.5199 10.6128 18.3914 9.73041 17.0773 9.25933C15.7631 8.78825 14.3329 8.75347 12.9975 9.16013C11.6622 9.56679 10.4924 10.3933 9.66084 11.5179C8.82924 12.6424 8.37983 14.0053 8.37891 15.4057V23.8029C9.13569 24.4008 9.97042 24.892 10.8599 25.2629V15.4018C10.8599 14.6014 11.0964 13.819 11.5396 13.1535C11.9827 12.488 12.6125 11.9693 13.3495 11.663C14.0864 11.3567 14.8973 11.2766 15.6796 11.4327C16.4619 11.5889 17.1804 11.9743 17.7445 12.5403C18.3085 13.1062 18.6926 13.8273 18.8482 14.6123C19.0038 15.3973 18.9239 16.211 18.6187 16.9505C18.3134 17.69 17.7965 18.322 17.1333 18.7667C16.4701 19.2114 15.6904 19.4487 14.8928 19.4487V19.4525Z" fill="#292D33"/>
<path d="M6.82417 22.2621V15.4741C6.82496 13.7743 7.36418 12.1184 8.3646 10.7434C9.36503 9.36849 10.7754 8.34504 12.3936 7.81966C14.0119 7.29429 15.755 7.29393 17.3735 7.81864C18.992 8.34335 20.4027 9.36622 21.4037 10.7408C22.4047 12.1153 22.9446 13.771 22.9461 15.4708C22.9476 17.1706 22.4106 18.8272 21.412 20.2035C20.4134 21.5798 19.0045 22.6051 17.3869 23.1327C15.7694 23.6602 14.0262 23.6629 12.407 23.1403V25.7153C14.2328 26.1569 16.1436 26.1034 17.9417 25.5602C19.7399 25.017 21.3602 24.0039 22.6351 22.6257C23.91 21.2474 24.7933 19.554 25.1936 17.7205C25.5938 15.887 25.4966 13.9799 24.912 12.1965C24.3273 10.4132 23.2764 8.81812 21.8679 7.57636C20.4594 6.3346 18.7445 5.49117 16.9004 5.13328C15.0563 4.77539 13.15 4.91603 11.3785 5.54065C9.60706 6.16527 8.03476 7.2512 6.82417 8.68618V5.24441V3.11816C5.92616 3.6958 5.09279 4.36803 4.33838 5.12331V15.7902C4.40878 18.1666 5.28528 20.4486 6.82417 22.2621Z" fill="#292D33"/>
<path d="M98.059 22.5V7.09588H102.919C104.336 7.09588 105.457 7.47917 106.282 8.24576C107.106 9.01235 107.518 9.94528 107.518 11.0445C107.518 12.5488 106.933 13.6408 105.761 14.3206C107.612 14.9426 108.538 16.172 108.538 18.0089C108.538 19.3252 108.054 20.4027 107.085 21.2416C106.13 22.0805 104.857 22.5 103.266 22.5H98.059ZM99.7079 21.003H103.44C104.568 21.003 105.428 20.7426 106.021 20.2219C106.614 19.7012 106.911 19.007 106.911 18.1391C106.911 17.2713 106.614 16.577 106.021 16.0563C105.443 15.5211 104.59 15.2536 103.461 15.2536H99.7079V21.003ZM99.7079 13.8216H103.027C103.924 13.8216 104.626 13.583 105.132 13.1057C105.638 12.6139 105.891 11.9847 105.891 11.2181C105.891 10.4949 105.631 9.88019 105.11 9.37395C104.604 8.85325 103.91 8.5929 103.027 8.5929H99.7079V13.8216ZM111.401 22.5V6.22804H112.919V22.5H111.401ZM125.464 21.0898C124.393 22.1746 123.041 22.717 121.406 22.717C119.772 22.717 118.42 22.1746 117.349 21.0898C116.279 19.9905 115.744 18.6526 115.744 17.076C115.744 15.4994 116.279 14.1688 117.349 13.084C118.42 11.9847 119.772 11.4351 121.406 11.4351C123.041 11.4351 124.393 11.9847 125.464 13.084C126.534 14.1688 127.069 15.4994 127.069 17.076C127.069 18.6526 126.534 19.9905 125.464 21.0898ZM118.434 20.0917C119.201 20.9017 120.191 21.3067 121.406 21.3067C122.621 21.3067 123.605 20.9017 124.357 20.0917C125.124 19.2673 125.507 18.2621 125.507 17.076C125.507 15.89 125.124 14.892 124.357 14.082C123.605 13.2575 122.621 12.8453 121.406 12.8453C120.191 12.8453 119.201 13.2575 118.434 14.082C117.682 14.892 117.306 15.89 117.306 17.076C117.306 18.2621 117.682 19.2673 118.434 20.0917ZM131.655 19.9182C132.392 20.6992 133.347 21.0898 134.518 21.0898C135.69 21.0898 136.637 20.6992 137.361 19.9182C138.098 19.1371 138.467 18.1536 138.467 16.9675C138.467 15.7815 138.098 14.7979 137.361 14.0169C136.637 13.2358 135.69 12.8453 134.518 12.8453C133.347 12.8453 132.392 13.2358 131.655 14.0169C130.931 14.7979 130.57 15.7815 130.57 16.9675C130.57 18.1536 130.931 19.1371 131.655 19.9182ZM134.497 27.2514C133.325 27.2514 132.291 27.0272 131.394 26.5788C130.497 26.1305 129.825 25.5664 129.376 24.8866L130.57 23.8668C131.51 25.1831 132.819 25.8412 134.497 25.8412C135.538 25.8412 136.435 25.5085 137.187 24.8432C137.954 24.1778 138.337 23.1798 138.337 21.8491V20.4606C137.932 21.0681 137.375 21.5598 136.666 21.9359C135.958 22.312 135.191 22.5 134.367 22.5C132.833 22.5 131.553 21.9721 130.526 20.9162C129.514 19.8459 129.008 18.5296 129.008 16.9675C129.008 15.4054 129.514 14.0964 130.526 13.0406C131.553 11.9702 132.833 11.4351 134.367 11.4351C135.191 11.4351 135.958 11.6231 136.666 11.9992C137.375 12.3752 137.932 12.867 138.337 13.4745V11.652H139.856V21.9359C139.856 23.6427 139.357 24.9516 138.359 25.8629C137.361 26.7886 136.073 27.2514 134.497 27.2514Z" fill="#292D33"/>
</svg>
