<svg width="216" height="30" viewBox="0 0 216 30" fill="none" xmlns="http://www.w3.org/2000/svg">
<path d="M43.4745 6.95514C42.1801 6.94374 40.9026 7.24999 39.7541 7.84706C38.6056 8.44412 37.6211 9.31377 36.8868 10.3798C36.1525 11.4458 35.6909 12.6757 35.5425 13.9616C35.394 15.2475 35.5632 16.5501 36.0352 17.7554C36.5072 18.9607 37.2677 20.0319 38.2499 20.8749C39.2322 21.718 40.4062 22.3073 41.6691 22.5912C42.932 22.8751 44.2453 22.8448 45.4938 22.5032C46.7424 22.1615 47.888 21.5188 48.8304 20.6314V22.0649H51.3119V15.2451C51.3182 15.0984 51.322 14.9505 51.3207 14.8014C51.2961 12.7281 50.4615 10.7466 48.9954 9.28046C47.5292 7.81431 45.5478 6.97975 43.4745 6.95514ZM43.5086 20.3217C42.4214 20.3422 41.353 20.0372 40.4404 19.4459C39.5279 18.8545 38.813 18.0039 38.3875 17.0033C37.962 16.0026 37.8453 14.8976 38.0525 13.8302C38.2597 12.7627 38.7813 11.7816 39.5503 11.0128C40.3193 10.244 41.3005 9.72268 42.368 9.51572C43.4355 9.30877 44.5405 9.42566 45.541 9.85139C46.5416 10.2771 47.392 10.9923 47.9831 11.9049C48.5742 12.8176 48.879 13.8861 48.8582 14.9733C48.8582 15.0277 48.8582 15.0808 48.8507 15.1338H48.8317V15.4006C48.697 16.729 48.0814 17.9625 47.1008 18.8688C46.1203 19.7751 44.8423 20.2918 43.5073 20.3217H43.5086Z" fill="white"/>
<path d="M60.7624 6.95494C58.7128 6.93416 56.7356 7.71217 55.2497 9.12413V2.22217H52.7695V15.1336H52.7834C52.8353 16.6839 53.3415 18.1848 54.2393 19.4498C55.137 20.7147 56.3867 21.688 57.8329 22.2486C59.2792 22.8093 60.8584 22.9325 62.3741 22.6032C63.8899 22.2738 65.2755 21.5063 66.3587 20.396C67.4419 19.2857 68.1749 17.8815 68.4667 16.3581C68.7585 14.8346 68.5962 13.259 68 11.827C67.4038 10.3951 66.3999 9.16984 65.1132 8.30364C63.8264 7.43744 62.3135 6.96845 60.7624 6.95494ZM60.7928 20.3215C59.3755 20.3485 58.0034 19.8225 56.9675 18.855C55.9315 17.8875 55.3131 16.5545 55.2434 15.1387V14.5838C55.2992 13.5236 55.6633 12.5028 56.2911 11.6466C56.9188 10.7905 57.7829 10.1362 58.7772 9.76417C59.7715 9.39212 60.8528 9.31846 61.8884 9.55223C62.924 9.786 63.8688 10.317 64.6068 11.0801C65.3449 11.8433 65.8441 12.8052 66.0432 13.848C66.2423 14.8909 66.1326 15.9691 65.7276 16.9504C65.3225 17.9318 64.6398 18.7735 63.7632 19.3724C62.8866 19.9712 61.8542 20.3011 60.7928 20.3215Z" fill="white"/>
<path d="M78.0514 6.95505C77.0005 6.94578 75.9583 7.14592 74.9855 7.54381C74.0128 7.9417 73.1291 8.52935 72.386 9.27248C71.6429 10.0156 71.0552 10.8993 70.6573 11.872C70.2595 12.8447 70.0593 13.8869 70.0686 14.9378C70.0686 15.0036 70.0686 15.0642 70.0686 15.1338H70.0547V28.0465H72.5348V20.601C73.4704 21.4876 74.6084 22.1322 75.8499 22.4787C77.0914 22.8251 78.3987 22.863 79.6582 22.589C80.9177 22.315 82.0911 21.7373 83.0764 20.9064C84.0617 20.0754 84.8291 19.0163 85.3117 17.8211C85.7943 16.6259 85.9775 15.3309 85.8455 14.0488C85.7135 12.7666 85.2701 11.5361 84.5541 10.4644C83.838 9.39267 82.8709 8.51213 81.737 7.89941C80.603 7.28668 79.3364 6.96032 78.0476 6.94873L78.0514 6.95505ZM78.0868 20.3216C76.6726 20.3485 75.3034 19.8247 74.2682 18.861C73.233 17.8973 72.6128 16.5689 72.5386 15.1565V15.1338C72.5386 15.0073 72.5298 14.8898 72.5386 14.7659C72.5601 13.6966 72.8956 12.6573 73.5032 11.7772C74.1109 10.8971 74.9639 10.2151 75.9562 9.81608C76.9484 9.41705 78.0361 9.31859 79.0839 9.53295C80.1317 9.74732 81.0933 10.265 81.8491 11.0217C82.6049 11.7784 83.1216 12.7406 83.3347 13.7886C83.5479 14.8366 83.4482 15.9242 83.048 16.916C82.6479 17.9078 81.9649 18.7601 81.0841 19.3667C80.2034 19.9734 79.1636 20.3076 78.0943 20.3279L78.0868 20.3216Z" fill="white"/>
<path d="M14.7408 17.5556C16.0909 17.5556 17.1853 16.4612 17.1853 15.1112C17.1853 13.7612 16.0909 12.6667 14.7408 12.6667C13.3908 12.6667 12.2964 13.7612 12.2964 15.1112C12.2964 16.4612 13.3908 17.5556 14.7408 17.5556Z" fill="#B84297"/>
<path d="M14.7396 0.518561C12.5071 0.516465 10.3036 1.02326 8.29639 2.00042V5.16501C10.0847 4.0234 12.1442 3.37721 14.2642 3.29253C16.3842 3.20785 18.4887 3.68772 20.3624 4.68306C22.2361 5.6784 23.8119 7.1535 24.9285 8.95752C26.0451 10.7615 26.6625 12.8297 26.7176 14.9506V23.8519C28.2981 21.6491 29.2405 19.0532 29.4412 16.3496C29.6418 13.6459 29.0928 10.9393 27.8547 8.52744C26.6166 6.11557 24.7372 4.09186 22.4234 2.67887C20.1095 1.26589 17.4508 0.518385 14.7396 0.518561Z" fill="white"/>
<path d="M14.7366 27.2501C11.6573 27.25 8.69621 26.0644 6.46777 23.9392C4.23933 21.814 2.91457 18.9124 2.76837 15.8364H2.75447V6.66675C0.599637 9.67837 -0.34358 13.3904 0.112183 17.0654C0.567946 20.7404 2.38934 24.1096 5.21455 26.5035C8.03976 28.8975 11.6621 30.1411 15.3619 29.9874C19.0617 29.8336 22.5683 28.2937 25.1852 25.6736V21.1349C24.1434 22.9902 22.6264 24.5347 20.7901 25.6094C18.9537 26.6842 16.8643 27.2505 14.7366 27.2501Z" fill="white"/>
<path d="M14.7459 19.0619C13.8554 19.0627 12.9903 18.7635 12.2894 18.2123V21.0399C13.5672 21.5673 14.9802 21.6687 16.3197 21.329C17.6593 20.9893 18.8546 20.2266 19.7294 19.1533C20.6041 18.0801 21.1119 16.7531 21.1779 15.3682C21.2439 13.9833 20.8646 12.6138 20.0959 11.4617C19.3273 10.3096 18.2099 9.43585 16.9088 8.96943C15.6076 8.50301 14.1915 8.46858 12.8694 8.87121C11.5472 9.27385 10.389 10.0922 9.56565 11.2056C8.74227 12.319 8.29731 13.6685 8.29639 15.055V23.3692C9.04569 23.9612 9.87217 24.4476 10.7529 24.8148V15.0512C10.7529 14.2587 10.987 13.484 11.4258 12.8251C11.8646 12.1662 12.4882 11.6526 13.2178 11.3493C13.9475 11.0461 14.7503 10.9667 15.5249 11.1213C16.2995 11.2759 17.0109 11.6575 17.5694 12.2179C18.1278 12.7783 18.5081 13.4922 18.6622 14.2695C18.8163 15.0468 18.7372 15.8524 18.435 16.5846C18.1327 17.3167 17.6209 17.9425 16.9643 18.3828C16.3076 18.8231 15.5356 19.0581 14.7459 19.0581V19.0619Z" fill="white"/>
<path d="M6.75762 21.8435V15.1227C6.75839 13.4397 7.29228 11.8002 8.28282 10.4388C9.27336 9.07744 10.6698 8.06411 12.272 7.54393C13.8743 7.02375 15.6002 7.02339 17.2027 7.54292C18.8052 8.06244 20.202 9.07519 21.1931 10.4361C22.1842 11.7971 22.7188 13.4364 22.7202 15.1194C22.7217 16.8024 22.19 18.4427 21.2013 19.8053C20.2126 21.168 18.8175 22.1832 17.216 22.7055C15.6144 23.2278 13.8884 23.2305 12.2853 22.7131V25.2626C14.093 25.6999 15.9849 25.6469 17.7653 25.109C19.5457 24.5712 21.15 23.5682 22.4123 22.2035C23.6746 20.8389 24.5491 19.1622 24.9455 17.3468C25.3418 15.5315 25.2455 13.6433 24.6666 11.8775C24.0878 10.1118 23.0472 8.53252 21.6527 7.30303C20.2581 6.07355 18.5601 5.23846 16.7343 4.88411C14.9084 4.52976 13.0209 4.669 11.267 5.28745C9.513 5.90589 7.95624 6.98109 6.75762 8.40188V4.99414V2.88892C5.86848 3.46084 5.04335 4.12643 4.29639 4.87424V15.4357C4.3661 17.7886 5.23393 20.048 6.75762 21.8435Z" fill="white"/>
<path d="M103.296 22.2667C101.015 22.2667 99.0816 21.4815 97.4964 19.9111C95.9261 18.3407 95.1409 16.4074 95.1409 14.1111C95.1409 11.8148 95.9261 9.88148 97.4964 8.31111C99.0816 6.74074 101.015 5.95555 103.296 5.95555C104.733 5.95555 106.052 6.28889 107.252 6.95555C108.452 7.60741 109.422 8.5037 110.163 9.64444L108.763 10.5333C108.185 9.61481 107.422 8.88889 106.474 8.35555C105.526 7.82222 104.467 7.55555 103.296 7.55555C101.474 7.55555 99.9409 8.19259 98.6964 9.46667C97.4668 10.7259 96.852 12.2741 96.852 14.1111C96.852 15.963 97.4668 17.5185 98.6964 18.7778C99.9409 20.037 101.474 20.6667 103.296 20.6667C104.467 20.6667 105.526 20.4 106.474 19.8667C107.422 19.3333 108.185 18.6074 108.763 17.6889L110.163 18.5778C109.422 19.7185 108.452 20.6222 107.252 21.2889C106.052 21.9407 104.733 22.2667 103.296 22.2667ZM121.804 20.5556C120.708 21.6667 119.323 22.2222 117.649 22.2222C115.975 22.2222 114.59 21.6667 113.493 20.5556C112.397 19.4296 111.849 18.0593 111.849 16.4444C111.849 14.8296 112.397 13.4667 113.493 12.3556C114.59 11.2296 115.975 10.6667 117.649 10.6667C119.323 10.6667 120.708 11.2296 121.804 12.3556C122.901 13.4667 123.449 14.8296 123.449 16.4444C123.449 18.0593 122.901 19.4296 121.804 20.5556ZM114.604 19.5333C115.39 20.363 116.404 20.7778 117.649 20.7778C118.893 20.7778 119.901 20.363 120.671 19.5333C121.456 18.6889 121.849 17.6593 121.849 16.4444C121.849 15.2296 121.456 14.2074 120.671 13.3778C119.901 12.5333 118.893 12.1111 117.649 12.1111C116.404 12.1111 115.39 12.5333 114.604 13.3778C113.834 14.2074 113.449 15.2296 113.449 16.4444C113.449 17.6593 113.834 18.6889 114.604 19.5333ZM140.746 22V15.2667C140.746 14.3185 140.538 13.5556 140.123 12.9778C139.723 12.4 139.146 12.1111 138.39 12.1111C137.397 12.1111 136.597 12.5111 135.99 13.3111C135.397 14.0963 135.101 15.1481 135.101 16.4667V22H133.546V15.2667C133.546 14.3185 133.338 13.5556 132.923 12.9778C132.523 12.4 131.953 12.1111 131.212 12.1111C130.234 12.1111 129.434 12.5111 128.812 13.3111C128.205 14.0963 127.901 15.1481 127.901 16.4667V22H126.346V10.8889H127.901V12.7556C128.227 12.1037 128.694 11.5926 129.301 11.2222C129.909 10.8519 130.597 10.6667 131.368 10.6667C132.197 10.6667 132.909 10.8889 133.501 11.3333C134.109 11.7778 134.546 12.3926 134.812 13.1778C135.094 12.4074 135.553 11.8 136.19 11.3556C136.842 10.8963 137.612 10.6667 138.501 10.6667C139.657 10.6667 140.575 11.0741 141.257 11.8889C141.953 12.6889 142.301 13.7407 142.301 15.0444V22H140.746ZM160.342 22V15.2667C160.342 14.3185 160.135 13.5556 159.72 12.9778C159.32 12.4 158.742 12.1111 157.986 12.1111C156.994 12.1111 156.194 12.5111 155.586 13.3111C154.994 14.0963 154.697 15.1481 154.697 16.4667V22H153.142V15.2667C153.142 14.3185 152.935 13.5556 152.52 12.9778C152.12 12.4 151.549 12.1111 150.809 12.1111C149.831 12.1111 149.031 12.5111 148.409 13.3111C147.801 14.0963 147.497 15.1481 147.497 16.4667V22H145.942V10.8889H147.497V12.7556C147.823 12.1037 148.29 11.5926 148.897 11.2222C149.505 10.8519 150.194 10.6667 150.964 10.6667C151.794 10.6667 152.505 10.8889 153.097 11.3333C153.705 11.7778 154.142 12.3926 154.409 13.1778C154.69 12.4074 155.149 11.8 155.786 11.3556C156.438 10.8963 157.209 10.6667 158.097 10.6667C159.253 10.6667 160.172 11.0741 160.853 11.8889C161.549 12.6889 161.897 13.7407 161.897 15.0444V22H160.342ZM169.427 22.2222C168.227 22.2222 167.249 21.8222 166.494 21.0222C165.738 20.2222 165.361 19.163 165.361 17.8444V10.8889H166.916V17.6222C166.916 18.5852 167.168 19.3556 167.672 19.9333C168.175 20.4963 168.827 20.7778 169.627 20.7778C170.59 20.7778 171.383 20.3852 172.005 19.6C172.642 18.8 172.961 17.7407 172.961 16.4222V10.8889H174.516V22H172.961V20.1333C172.205 21.5259 171.027 22.2222 169.427 22.2222ZM178.342 22V10.8889H179.898V12.7556C180.653 11.363 181.868 10.6667 183.542 10.6667C184.772 10.6667 185.772 11.0593 186.542 11.8444C187.327 12.6296 187.72 13.6963 187.72 15.0444V22H186.164V15.2667C186.164 14.3037 185.905 13.5407 185.387 12.9778C184.883 12.4 184.209 12.1111 183.364 12.1111C182.357 12.1111 181.527 12.5037 180.875 13.2889C180.224 14.0593 179.898 15.1185 179.898 16.4667V22H178.342ZM192.163 7.55555C191.822 7.55555 191.533 7.44444 191.296 7.22222C191.074 6.98518 190.963 6.7037 190.963 6.37778C190.963 6.05185 191.074 5.77778 191.296 5.55555C191.533 5.31852 191.822 5.2 192.163 5.2C192.489 5.2 192.763 5.31852 192.985 5.55555C193.207 5.77778 193.318 6.05185 193.318 6.37778C193.318 6.7037 193.207 6.98518 192.985 7.22222C192.763 7.44444 192.489 7.55555 192.163 7.55555ZM191.363 22V10.8889H192.918V22H191.363ZM200.723 22.1111C199.789 22.1111 199.026 21.8444 198.434 21.3111C197.856 20.763 197.567 19.963 197.567 18.9111V12.3556H195.189V10.8889H197.567V7.8H199.123V10.8889H202.367V12.3556H199.123V18.7778C199.123 19.4593 199.271 19.9481 199.567 20.2444C199.878 20.5259 200.345 20.6667 200.967 20.6667C201.53 20.6667 201.997 20.5852 202.367 20.4222V21.8222C201.878 22.0148 201.33 22.1111 200.723 22.1111ZM207.46 26.6444H205.705L208.149 21.4444L203.216 10.8889H204.949L209.016 19.7111L213.082 10.8889H214.838L207.46 26.6444Z" fill="white"/>
</svg>
