<svg width="177" height="30" viewBox="0 0 177 30" fill="none" xmlns="http://www.w3.org/2000/svg">
<path d="M43.4745 6.95514C42.1801 6.94374 40.9026 7.24999 39.7541 7.84706C38.6056 8.44412 37.6211 9.31377 36.8868 10.3798C36.1525 11.4458 35.6909 12.6757 35.5425 13.9616C35.394 15.2475 35.5632 16.5501 36.0352 17.7554C36.5072 18.9607 37.2677 20.0319 38.2499 20.8749C39.2322 21.718 40.4062 22.3073 41.6691 22.5912C42.932 22.8751 44.2453 22.8448 45.4938 22.5032C46.7424 22.1615 47.888 21.5188 48.8304 20.6314V22.0649H51.3119V15.2451C51.3182 15.0984 51.322 14.9505 51.3207 14.8014C51.2961 12.7281 50.4615 10.7466 48.9954 9.28046C47.5292 7.81431 45.5478 6.97975 43.4745 6.95514ZM43.5086 20.3217C42.4214 20.3422 41.353 20.0372 40.4404 19.4459C39.5279 18.8545 38.813 18.0039 38.3875 17.0033C37.962 16.0026 37.8453 14.8976 38.0525 13.8302C38.2597 12.7627 38.7813 11.7816 39.5503 11.0128C40.3193 10.244 41.3005 9.72268 42.368 9.51572C43.4355 9.30877 44.5405 9.42566 45.541 9.85139C46.5416 10.2771 47.392 10.9923 47.9831 11.9049C48.5742 12.8176 48.879 13.8861 48.8582 14.9733C48.8582 15.0277 48.8582 15.0808 48.8507 15.1338H48.8317V15.4006C48.697 16.729 48.0814 17.9625 47.1008 18.8688C46.1203 19.7751 44.8423 20.2918 43.5073 20.3217H43.5086Z" fill="#292D33"/>
<path d="M60.7624 6.95494C58.7128 6.93416 56.7356 7.71217 55.2497 9.12413V2.22217H52.7695V15.1336H52.7834C52.8353 16.6839 53.3415 18.1848 54.2393 19.4498C55.137 20.7147 56.3867 21.688 57.8329 22.2486C59.2792 22.8093 60.8584 22.9325 62.3741 22.6032C63.8899 22.2738 65.2755 21.5063 66.3587 20.396C67.4419 19.2857 68.1749 17.8815 68.4667 16.3581C68.7585 14.8346 68.5962 13.259 68 11.827C67.4038 10.3951 66.3999 9.16984 65.1132 8.30364C63.8264 7.43744 62.3135 6.96845 60.7624 6.95494ZM60.7928 20.3215C59.3755 20.3485 58.0034 19.8225 56.9675 18.855C55.9315 17.8875 55.3131 16.5545 55.2434 15.1387V14.5838C55.2992 13.5236 55.6633 12.5028 56.2911 11.6466C56.9188 10.7905 57.7829 10.1362 58.7772 9.76417C59.7715 9.39212 60.8528 9.31846 61.8884 9.55223C62.924 9.786 63.8688 10.317 64.6068 11.0801C65.3449 11.8433 65.8441 12.8052 66.0432 13.848C66.2423 14.8909 66.1326 15.9691 65.7276 16.9504C65.3225 17.9318 64.6398 18.7735 63.7632 19.3724C62.8866 19.9712 61.8542 20.3011 60.7928 20.3215Z" fill="#292D33"/>
<path d="M78.0518 6.95505C77.001 6.94578 75.9587 7.14592 74.986 7.54381C74.0133 7.9417 73.1296 8.52935 72.3865 9.27248C71.6434 10.0156 71.0557 10.8993 70.6578 11.872C70.2599 12.8447 70.0598 13.8869 70.0691 14.9378C70.0691 15.0036 70.0691 15.0642 70.0691 15.1338H70.0552V28.0465H72.5353V20.601C73.4709 21.4876 74.6089 22.1322 75.8504 22.4787C77.0919 22.8251 78.3992 22.863 79.6587 22.589C80.9182 22.315 82.0916 21.7373 83.0769 20.9064C84.0622 20.0754 84.8296 19.0163 85.3122 17.8211C85.7948 16.6259 85.978 15.3309 85.846 14.0488C85.714 12.7666 85.2706 11.5361 84.5546 10.4644C83.8385 9.39267 82.8714 8.51213 81.7374 7.89941C80.6035 7.28668 79.3369 6.96032 78.0481 6.94873L78.0518 6.95505ZM78.0872 20.3216C76.6731 20.3485 75.3039 19.8247 74.2687 18.861C73.2335 17.8973 72.6133 16.5689 72.5391 15.1565V15.1338C72.5391 15.0073 72.5303 14.8898 72.5391 14.7659C72.5606 13.6966 72.8961 12.6573 73.5037 11.7772C74.1114 10.8971 74.9644 10.2151 75.9567 9.81608C76.9489 9.41705 78.0366 9.31859 79.0844 9.53295C80.1322 9.74732 81.0938 10.265 81.8496 11.0217C82.6054 11.7784 83.122 12.7406 83.3352 13.7886C83.5484 14.8366 83.4487 15.9242 83.0485 16.916C82.6484 17.9078 81.9654 18.7601 81.0846 19.3667C80.2038 19.9734 79.1641 20.3076 78.0948 20.3279L78.0872 20.3216Z" fill="#292D33"/>
<path d="M14.7408 17.5556C16.0909 17.5556 17.1853 16.4612 17.1853 15.1112C17.1853 13.7612 16.0909 12.6667 14.7408 12.6667C13.3908 12.6667 12.2964 13.7612 12.2964 15.1112C12.2964 16.4612 13.3908 17.5556 14.7408 17.5556Z" fill="#B84297"/>
<path d="M14.7396 0.518561C12.5071 0.516465 10.3036 1.02326 8.29639 2.00042V5.16501C10.0847 4.0234 12.1442 3.37721 14.2642 3.29253C16.3842 3.20785 18.4887 3.68772 20.3624 4.68306C22.2361 5.6784 23.8119 7.1535 24.9285 8.95752C26.0451 10.7615 26.6625 12.8297 26.7176 14.9506V23.8519C28.2981 21.6491 29.2405 19.0532 29.4412 16.3496C29.6418 13.6459 29.0928 10.9393 27.8547 8.52744C26.6166 6.11557 24.7372 4.09186 22.4234 2.67887C20.1095 1.26589 17.4508 0.518385 14.7396 0.518561Z" fill="#292D33"/>
<path d="M14.7366 27.2501C11.6573 27.25 8.69621 26.0644 6.46777 23.9392C4.23933 21.814 2.91457 18.9124 2.76837 15.8364H2.75447V6.66675C0.599637 9.67837 -0.34358 13.3904 0.112183 17.0654C0.567946 20.7404 2.38934 24.1096 5.21455 26.5035C8.03976 28.8975 11.6621 30.1411 15.3619 29.9874C19.0617 29.8336 22.5683 28.2937 25.1852 25.6736V21.1349C24.1434 22.9902 22.6264 24.5347 20.7901 25.6094C18.9537 26.6842 16.8643 27.2505 14.7366 27.2501Z" fill="#292D33"/>
<path d="M14.7459 19.0619C13.8554 19.0627 12.9903 18.7635 12.2894 18.2123V21.0399C13.5672 21.5673 14.9802 21.6687 16.3197 21.329C17.6593 20.9893 18.8546 20.2266 19.7294 19.1533C20.6041 18.0801 21.1119 16.7531 21.1779 15.3682C21.2439 13.9833 20.8646 12.6138 20.0959 11.4617C19.3273 10.3096 18.2099 9.43585 16.9088 8.96943C15.6076 8.50301 14.1915 8.46858 12.8694 8.87121C11.5472 9.27385 10.389 10.0922 9.56565 11.2056C8.74227 12.319 8.29731 13.6685 8.29639 15.055V23.3692C9.04569 23.9612 9.87217 24.4476 10.7529 24.8148V15.0512C10.7529 14.2587 10.987 13.484 11.4258 12.8251C11.8646 12.1662 12.4882 11.6526 13.2178 11.3493C13.9475 11.0461 14.7503 10.9667 15.5249 11.1213C16.2995 11.2759 17.0109 11.6575 17.5694 12.2179C18.1278 12.7783 18.5081 13.4922 18.6622 14.2695C18.8163 15.0468 18.7372 15.8524 18.435 16.5846C18.1327 17.3167 17.6209 17.9425 16.9643 18.3828C16.3076 18.8231 15.5356 19.0581 14.7459 19.0581V19.0619Z" fill="#292D33"/>
<path d="M6.75762 21.8435V15.1227C6.75839 13.4397 7.29228 11.8002 8.28282 10.4388C9.27336 9.07744 10.6698 8.06411 12.272 7.54393C13.8743 7.02375 15.6002 7.02339 17.2027 7.54292C18.8052 8.06244 20.202 9.07519 21.1931 10.4361C22.1842 11.7971 22.7188 13.4364 22.7202 15.1194C22.7217 16.8024 22.19 18.4427 21.2013 19.8053C20.2126 21.168 18.8175 22.1832 17.216 22.7055C15.6144 23.2278 13.8884 23.2305 12.2853 22.7131V25.2626C14.093 25.6999 15.9849 25.6469 17.7653 25.109C19.5457 24.5712 21.15 23.5682 22.4123 22.2035C23.6746 20.8389 24.5491 19.1622 24.9455 17.3468C25.3418 15.5315 25.2455 13.6433 24.6666 11.8775C24.0878 10.1118 23.0472 8.53252 21.6527 7.30303C20.2581 6.07355 18.5601 5.23846 16.7343 4.88411C14.9084 4.52976 13.0209 4.669 11.267 5.28745C9.513 5.90589 7.95624 6.98109 6.75762 8.40188V4.99414V2.88892C5.86848 3.46084 5.04335 4.12643 4.29639 4.87424V15.4357C4.3661 17.7886 5.23393 20.048 6.75762 21.8435Z" fill="#292D33"/>
<path d="M100.385 22.2667C99.1113 22.2667 97.9779 22 96.9853 21.4667C95.9927 20.9185 95.3113 20.237 94.9409 19.4222L96.3409 18.4222C97.2742 19.9185 98.6298 20.6667 100.408 20.6667C101.326 20.6667 102.082 20.4296 102.674 19.9556C103.282 19.4815 103.585 18.8519 103.585 18.0667C103.585 16.7481 102.822 15.7926 101.296 15.2L98.9631 14.3111C97.7335 13.8519 96.8446 13.2889 96.2964 12.6222C95.7483 11.9556 95.4742 11.0815 95.4742 10C95.4742 8.78518 95.9261 7.80741 96.8298 7.06666C97.7483 6.32592 98.9038 5.95555 100.296 5.95555C101.259 5.95555 102.126 6.15555 102.896 6.55555C103.682 6.95555 104.304 7.47407 104.763 8.11111L103.452 9.17778C102.548 8.09629 101.474 7.55555 100.23 7.55555C99.3557 7.55555 98.6224 7.78518 98.0298 8.24444C97.452 8.68889 97.1631 9.26667 97.1631 9.97778C97.1631 10.6741 97.3409 11.2222 97.6964 11.6222C98.0668 12.0074 98.6742 12.363 99.5187 12.6889L101.608 13.4889C102.837 13.963 103.756 14.5556 104.363 15.2667C104.971 15.9778 105.274 16.8963 105.274 18.0222C105.274 19.3259 104.822 20.363 103.919 21.1333C103.015 21.8889 101.837 22.2667 100.385 22.2667ZM112.07 22.2222C110.87 22.2222 109.893 21.8222 109.137 21.0222C108.382 20.2222 108.004 19.163 108.004 17.8444V10.8889H109.559V17.6222C109.559 18.5852 109.811 19.3556 110.315 19.9333C110.819 20.4963 111.47 20.7778 112.27 20.7778C113.233 20.7778 114.026 20.3852 114.648 19.6C115.285 18.8 115.604 17.7407 115.604 16.4222V10.8889H117.159V22H115.604V20.1333C114.848 21.5259 113.67 22.2222 112.07 22.2222ZM122.541 26.6444H120.985V10.8889H122.541V12.7556C122.941 12.1333 123.511 11.6296 124.252 11.2444C125.008 10.8593 125.808 10.6667 126.652 10.6667C128.208 10.6667 129.519 11.2296 130.585 12.3556C131.652 13.4815 132.185 14.8444 132.185 16.4444C132.185 18.0444 131.652 19.4074 130.585 20.5333C129.519 21.6593 128.208 22.2222 126.652 22.2222C125.808 22.2222 125.008 22.0296 124.252 21.6444C123.511 21.2593 122.941 20.7556 122.541 20.1333V26.6444ZM123.541 19.5333C124.311 20.363 125.296 20.7778 126.496 20.7778C127.696 20.7778 128.674 20.363 129.43 19.5333C130.2 18.6889 130.585 17.6593 130.585 16.4444C130.585 15.2296 130.2 14.2074 129.43 13.3778C128.674 12.5333 127.696 12.1111 126.496 12.1111C125.296 12.1111 124.311 12.5333 123.541 13.3778C122.785 14.2074 122.408 15.2296 122.408 16.4444C122.408 17.6593 122.785 18.6889 123.541 19.5333ZM136.647 26.6444H135.091V10.8889H136.647V12.7556C137.047 12.1333 137.617 11.6296 138.358 11.2444C139.113 10.8593 139.913 10.6667 140.758 10.6667C142.313 10.6667 143.625 11.2296 144.691 12.3556C145.758 13.4815 146.291 14.8444 146.291 16.4444C146.291 18.0444 145.758 19.4074 144.691 20.5333C143.625 21.6593 142.313 22.2222 140.758 22.2222C139.913 22.2222 139.113 22.0296 138.358 21.6444C137.617 21.2593 137.047 20.7556 136.647 20.1333V26.6444ZM137.647 19.5333C138.417 20.363 139.402 20.7778 140.602 20.7778C141.802 20.7778 142.78 20.363 143.536 19.5333C144.306 18.6889 144.691 17.6593 144.691 16.4444C144.691 15.2296 144.306 14.2074 143.536 13.3778C142.78 12.5333 141.802 12.1111 140.602 12.1111C139.402 12.1111 138.417 12.5333 137.647 13.3778C136.891 14.2074 136.513 15.2296 136.513 16.4444C136.513 17.6593 136.891 18.6889 137.647 19.5333ZM158.219 20.5556C157.123 21.6667 155.738 22.2222 154.064 22.2222C152.39 22.2222 151.005 21.6667 149.908 20.5556C148.812 19.4296 148.264 18.0593 148.264 16.4444C148.264 14.8296 148.812 13.4667 149.908 12.3556C151.005 11.2296 152.39 10.6667 154.064 10.6667C155.738 10.6667 157.123 11.2296 158.219 12.3556C159.316 13.4667 159.864 14.8296 159.864 16.4444C159.864 18.0593 159.316 19.4296 158.219 20.5556ZM151.019 19.5333C151.805 20.363 152.819 20.7778 154.064 20.7778C155.308 20.7778 156.316 20.363 157.086 19.5333C157.871 18.6889 158.264 17.6593 158.264 16.4444C158.264 15.2296 157.871 14.2074 157.086 13.3778C156.316 12.5333 155.308 12.1111 154.064 12.1111C152.819 12.1111 151.805 12.5333 151.019 13.3778C150.249 14.2074 149.864 15.2296 149.864 16.4444C149.864 17.6593 150.249 18.6889 151.019 19.5333ZM162.761 22V10.8889H164.316V13.1778C164.553 12.437 164.975 11.8519 165.583 11.4222C166.19 10.9926 166.842 10.7778 167.538 10.7778C167.849 10.7778 168.116 10.8074 168.338 10.8667V12.4889C168.072 12.3852 167.761 12.3333 167.405 12.3333C166.62 12.3333 165.909 12.6889 165.272 13.4C164.635 14.1111 164.316 15.1185 164.316 16.4222V22H162.761ZM174.681 22.1111C173.748 22.1111 172.985 21.8444 172.392 21.3111C171.814 20.763 171.525 19.963 171.525 18.9111V12.3556H169.148V10.8889H171.525V7.8H173.081V10.8889H176.325V12.3556H173.081V18.7778C173.081 19.4593 173.229 19.9481 173.525 20.2444C173.837 20.5259 174.303 20.6667 174.925 20.6667C175.488 20.6667 175.955 20.5852 176.325 20.4222V21.8222C175.837 22.0148 175.288 22.1111 174.681 22.1111Z" fill="#292D33"/>
</svg>
