<svg width="142" height="30" viewBox="0 0 142 30" fill="none" xmlns="http://www.w3.org/2000/svg">
<path d="M43.9096 6.72516C42.6023 6.71365 41.3121 7.02296 40.1522 7.62599C38.9922 8.22901 37.9978 9.10735 37.2562 10.184C36.5146 11.2607 36.0484 12.5028 35.8985 13.8016C35.7485 15.1003 35.9194 16.416 36.3961 17.6333C36.8729 18.8506 37.6409 19.9325 38.6329 20.784C39.625 21.6355 40.8107 22.2307 42.0863 22.5174C43.3618 22.8041 44.6882 22.7735 45.9492 22.4284C47.2101 22.0834 48.3672 21.4342 49.319 20.538V21.9858H51.8252V15.0979C51.8316 14.9498 51.8355 14.8004 51.8342 14.6498C51.8093 12.5557 50.9664 10.5545 49.4856 9.07371C48.0049 7.59291 46.0036 6.75002 43.9096 6.72516ZM43.9441 20.2252C42.8461 20.2459 41.7669 19.9378 40.8453 19.3406C39.9237 18.7434 39.2016 17.8843 38.7718 16.8736C38.3421 15.863 38.2243 14.7469 38.4336 13.6689C38.6429 12.5908 39.1696 11.5998 39.9463 10.8234C40.7229 10.0469 41.714 9.52034 42.7921 9.31131C43.8703 9.10229 44.9863 9.22036 45.9968 9.65034C47.0074 10.0803 47.8663 10.8026 48.4633 11.7244C49.0603 12.6462 49.3681 13.7254 49.3471 14.8234C49.3471 14.8783 49.3471 14.9319 49.3395 14.9855H49.3203V15.2549C49.1843 16.5967 48.5626 17.8424 47.5722 18.7578C46.5818 19.6732 45.2911 20.195 43.9428 20.2252H43.9441Z" fill="white"/>
<path d="M61.3695 6.72511C59.2994 6.70411 57.3025 7.48989 55.8018 8.91596V1.94507H53.2969V14.9855H53.3109C53.3633 16.5512 53.8746 18.0671 54.7813 19.3447C55.688 20.6223 56.9501 21.6053 58.4108 22.1715C59.8715 22.7377 61.4665 22.8623 62.9973 22.5296C64.5282 22.1969 65.9276 21.4217 67.0216 20.3003C68.1156 19.179 68.856 17.7608 69.1507 16.2222C69.4455 14.6835 69.2815 13.0921 68.6794 11.6459C68.0772 10.1996 67.0633 8.96212 65.7637 8.08727C64.4641 7.21242 62.9361 6.73874 61.3695 6.72511ZM61.4002 20.2251C59.9688 20.2524 58.583 19.7212 57.5367 18.744C56.4904 17.7668 55.8658 16.4205 55.7954 14.9906V14.4301C55.8518 13.3594 56.2196 12.3284 56.8536 11.4636C57.4876 10.5989 58.3603 9.93816 59.3645 9.56239C60.3687 9.18662 61.4608 9.11223 62.5068 9.34833C63.5527 9.58443 64.5069 10.1208 65.2523 10.8915C65.9978 11.6622 66.5019 12.6338 66.703 13.687C66.9041 14.7403 66.7933 15.8293 66.3842 16.8204C65.9752 17.8116 65.2856 18.6617 64.4003 19.2665C63.5149 19.8714 62.4722 20.2045 61.4002 20.2251Z" fill="white"/>
<path d="M78.8304 6.72513C77.769 6.71577 76.7164 6.91791 75.734 7.31977C74.7516 7.72163 73.859 8.31516 73.1085 9.0657C72.358 9.81625 71.7644 10.7088 71.3626 11.6912C70.9607 12.6736 70.7586 13.7262 70.7679 14.7876C70.7679 14.854 70.7679 14.9153 70.7679 14.9855H70.7539V28.0272H73.2588V20.5073C74.2037 21.4028 75.3531 22.0538 76.607 22.4038C77.8608 22.7537 79.1812 22.792 80.4533 22.5152C81.7253 22.2384 82.9105 21.655 83.9056 20.8158C84.9008 19.9765 85.6757 18.9068 86.1632 17.6997C86.6506 16.4926 86.8357 15.1846 86.7023 13.8897C86.569 12.5947 86.1212 11.352 85.398 10.2695C84.6748 9.18709 83.6981 8.29777 82.5528 7.67892C81.4075 7.06008 80.1283 6.73046 78.8266 6.71875L78.8304 6.72513ZM78.8661 20.2252C77.4379 20.2523 76.055 19.7233 75.0095 18.75C73.9639 17.7766 73.3376 16.435 73.2626 15.0085V14.9855C73.2626 14.8578 73.2537 14.7391 73.2626 14.614C73.2844 13.534 73.6232 12.4843 74.2369 11.5954C74.8506 10.7066 75.7121 10.0178 76.7143 9.61473C77.7164 9.21171 78.815 9.11227 79.8732 9.32878C80.9315 9.54528 81.9027 10.0682 82.666 10.8324C83.4294 11.5966 83.9512 12.5685 84.1665 13.6269C84.3818 14.6854 84.2811 15.7839 83.8769 16.7856C83.4728 17.7873 82.783 18.648 81.8934 19.2607C81.0039 19.8734 79.9538 20.2111 78.8738 20.2316L78.8661 20.2252Z" fill="white"/>
<path d="M14.8878 17.4316C16.2513 17.4316 17.3566 16.3263 17.3566 14.9628C17.3566 13.5992 16.2513 12.4939 14.8878 12.4939C13.5243 12.4939 12.4189 13.5992 12.4189 14.9628C12.4189 16.3263 13.5243 17.4316 14.8878 17.4316Z" fill="#B84297"/>
<path d="M14.8864 0.224128C12.6317 0.222011 10.4061 0.733863 8.37891 1.72079V4.91698C10.1851 3.76396 12.2651 3.11132 14.4063 3.0258C16.5475 2.94027 18.673 3.42493 20.5654 4.43021C22.4578 5.4355 24.0493 6.92533 25.177 8.74736C26.3048 10.5694 26.9284 12.6582 26.984 14.8003V23.7905C28.5803 21.5657 29.5321 18.9439 29.7347 16.2132C29.9373 13.4826 29.3829 10.7489 28.1324 8.31299C26.882 5.87703 24.9839 3.83311 22.6469 2.40601C20.31 0.978924 17.6247 0.22395 14.8864 0.224128Z" fill="white"/>
<path d="M14.8836 27.2225C11.7736 27.2224 8.78301 26.0249 6.53233 23.8785C4.28164 21.7321 2.94366 18.8015 2.796 15.6948H2.78196V6.43359C0.605622 9.47529 -0.347009 13.2244 0.113303 16.9361C0.573615 20.6478 2.41319 24.0506 5.26659 26.4685C8.12 28.8863 11.7785 30.1424 15.5152 29.9871C19.252 29.8318 22.7936 28.2765 25.4366 25.6302V21.0462C24.3844 22.9201 22.8523 24.4799 20.9976 25.5654C19.1429 26.6509 17.0326 27.2229 14.8836 27.2225Z" fill="white"/>
<path d="M14.8928 18.9525C13.9934 18.9534 13.1197 18.6512 12.4118 18.0945V20.9504C13.7024 21.483 15.1294 21.5854 16.4823 21.2423C17.8353 20.8992 19.0425 20.1289 19.926 19.0449C20.8095 17.9609 21.3223 16.6207 21.389 15.222C21.4557 13.8233 21.0726 12.4401 20.2962 11.2765C19.5199 10.1128 18.3914 9.23041 17.0773 8.75933C15.7631 8.28825 14.3329 8.25347 12.9975 8.66013C11.6622 9.06679 10.4924 9.89334 9.66084 11.0179C8.82924 12.1424 8.37983 13.5053 8.37891 14.9057V23.3029C9.13569 23.9008 9.97042 24.392 10.8599 24.7629V14.9018C10.8599 14.1014 11.0964 13.319 11.5396 12.6535C11.9827 11.988 12.6125 11.4693 13.3495 11.163C14.0864 10.8567 14.8973 10.7766 15.6796 10.9327C16.4619 11.0889 17.1804 11.4743 17.7445 12.0403C18.3085 12.6062 18.6926 13.3273 18.8482 14.1123C19.0038 14.8973 18.9239 15.711 18.6187 16.4505C18.3134 17.19 17.7965 17.822 17.1333 18.2667C16.4701 18.7114 15.6904 18.9487 14.8928 18.9487V18.9525Z" fill="white"/>
<path d="M6.82417 21.7621V14.9741C6.82496 13.2743 7.36418 11.6184 8.3646 10.2434C9.36503 8.86849 10.7754 7.84504 12.3936 7.31966C14.0119 6.79429 15.755 6.79393 17.3735 7.31864C18.992 7.84335 20.4027 8.86622 21.4037 10.2408C22.4047 11.6153 22.9446 13.271 22.9461 14.9708C22.9476 16.6706 22.4106 18.3272 21.412 19.7035C20.4134 21.0798 19.0045 22.1051 17.3869 22.6327C15.7694 23.1602 14.0262 23.1629 12.407 22.6403V25.2153C14.2328 25.6569 16.1436 25.6034 17.9417 25.0602C19.7399 24.517 21.3602 23.5039 22.6351 22.1257C23.91 20.7474 24.7933 19.054 25.1936 17.2205C25.5938 15.387 25.4966 13.4799 24.912 11.6965C24.3273 9.91315 23.2764 8.31812 21.8679 7.07636C20.4594 5.8346 18.7445 4.99117 16.9004 4.63328C15.0563 4.27539 13.15 4.41603 11.3785 5.04065C9.60706 5.66527 8.03476 6.7512 6.82417 8.18618V4.74441V2.61816C5.92616 3.1958 5.09279 3.86803 4.33838 4.62331V15.2902C4.40878 17.6666 5.28528 19.9486 6.82417 21.7621Z" fill="white"/>
<path d="M98.059 22V6.59588H102.919C104.336 6.59588 105.457 6.97917 106.282 7.74576C107.106 8.51235 107.518 9.44528 107.518 10.5445C107.518 12.0488 106.933 13.1408 105.761 13.8206C107.612 14.4426 108.538 15.672 108.538 17.5089C108.538 18.8252 108.054 19.9027 107.085 20.7416C106.13 21.5805 104.857 22 103.266 22H98.059ZM99.7079 20.503H103.44C104.568 20.503 105.428 20.2426 106.021 19.7219C106.614 19.2012 106.911 18.507 106.911 17.6391C106.911 16.7713 106.614 16.077 106.021 15.5563C105.443 15.0211 104.59 14.7536 103.461 14.7536H99.7079V20.503ZM99.7079 13.3216H103.027C103.924 13.3216 104.626 13.083 105.132 12.6057C105.638 12.1139 105.891 11.4847 105.891 10.7181C105.891 9.99491 105.631 9.38019 105.11 8.87395C104.604 8.35325 103.91 8.0929 103.027 8.0929H99.7079V13.3216ZM111.401 22V5.72804H112.919V22H111.401ZM125.464 20.5898C124.393 21.6746 123.041 22.217 121.406 22.217C119.772 22.217 118.42 21.6746 117.349 20.5898C116.279 19.4905 115.744 18.1526 115.744 16.576C115.744 14.9994 116.279 13.6688 117.349 12.584C118.42 11.4847 119.772 10.9351 121.406 10.9351C123.041 10.9351 124.393 11.4847 125.464 12.584C126.534 13.6688 127.069 14.9994 127.069 16.576C127.069 18.1526 126.534 19.4905 125.464 20.5898ZM118.434 19.5917C119.201 20.4017 120.191 20.8067 121.406 20.8067C122.621 20.8067 123.605 20.4017 124.357 19.5917C125.124 18.7673 125.507 17.7621 125.507 16.576C125.507 15.39 125.124 14.392 124.357 13.582C123.605 12.7575 122.621 12.3453 121.406 12.3453C120.191 12.3453 119.201 12.7575 118.434 13.582C117.682 14.392 117.306 15.39 117.306 16.576C117.306 17.7621 117.682 18.7673 118.434 19.5917ZM131.655 19.4182C132.392 20.1992 133.347 20.5898 134.518 20.5898C135.69 20.5898 136.637 20.1992 137.361 19.4182C138.098 18.6371 138.467 17.6536 138.467 16.4675C138.467 15.2815 138.098 14.2979 137.361 13.5169C136.637 12.7358 135.69 12.3453 134.518 12.3453C133.347 12.3453 132.392 12.7358 131.655 13.5169C130.931 14.2979 130.57 15.2815 130.57 16.4675C130.57 17.6536 130.931 18.6371 131.655 19.4182ZM134.497 26.7514C133.325 26.7514 132.291 26.5272 131.394 26.0788C130.497 25.6305 129.825 25.0664 129.376 24.3866L130.57 23.3668C131.51 24.6831 132.819 25.3412 134.497 25.3412C135.538 25.3412 136.435 25.0085 137.187 24.3432C137.954 23.6778 138.337 22.6798 138.337 21.3491V19.9606C137.932 20.5681 137.375 21.0598 136.666 21.4359C135.958 21.812 135.191 22 134.367 22C132.833 22 131.553 21.4721 130.526 20.4162C129.514 19.3459 129.008 18.0296 129.008 16.4675C129.008 14.9054 129.514 13.5964 130.526 12.5406C131.553 11.4702 132.833 10.9351 134.367 10.9351C135.191 10.9351 135.958 11.1231 136.666 11.4992C137.375 11.8752 137.932 12.367 138.337 12.9745V11.152H139.856V21.4359C139.856 23.1427 139.357 24.4516 138.359 25.3629C137.361 26.2886 136.073 26.7514 134.497 26.7514Z" fill="white"/>
</svg>
